<svg id="圖層_1" data-name="圖層 1" xmlns="http://www.w3.org/2000/svg" viewBox="0 0 396.27 118.542"><defs><style>.cls-1{fill:#0d58c9;}.cls-2{fill:#fd9a05;}.cls-3{fill:#6a6a6a;}</style></defs><path class="cls-1" d="M11.4,8.794A5.674,5.674,0,0,1,13.748,6.34q1.853-1.2,6.11-1.31a12.007,12.007,0,0,1,5.783.927,9.838,9.838,0,0,1,3.382,3q2.4,5.676,4.474,10.312T38.08,29.581q2.508,5.674,5.073,11.511T47.954,52q2.235,5.075,3.765,8.511t1.964,4.31a11.712,11.712,0,0,1,1.091,2.946,2.1,2.1,0,0,1-.054,1.146.925.925,0,0,0-.164.381,6.492,6.492,0,0,1-3,2.674,12.756,12.756,0,0,1-5.4,1.255q-4.365.106-6.329-.928a6.286,6.286,0,0,1-2.563-2.073q-.6-1.038-.491-.928-2.292-5.016-3.82-8.565T30.114,54.24H20.3q-.438,1.53-.873,3.764T18.33,63.733a7.64,7.64,0,0,1-3.055,3.928Q13.2,68.971,8.4,68.97A13.665,13.665,0,0,1,3,68.152a4.938,4.938,0,0,1-2.4-1.91A5.589,5.589,0,0,1,0,63.515q.217-1.091.927-4.529t1.746-8.292Q3.708,45.84,4.855,40.383t2.237-10.8q1.089-5.344,1.964-9.766t1.964-9.766C10.946,10.049,11.074,9.632,11.4,8.794Zm11.076,18.5a12.953,12.953,0,0,0-.218,1.746l-.437,3.055q-.219,2.511-.546,5.347t-.654,5.346A15.5,15.5,0,0,1,20.3,44.42h1.418c.873,0,1.817-.036,2.837-.109s1.927-.109,2.727-.109a8.967,8.967,0,0,1-.709-2.237q-.273-1.364-.6-2.564-.656-2.51-1.474-5.237t-1.473-5.129A10.2,10.2,0,0,0,22.477,27.289Z"/><path class="cls-2" d="M61.429,54.076q-.111-5.617-.11-12.056t.163-12.494q.165-6.055.383-10.748t.436-6.764a6.142,6.142,0,0,1,1.855-3.983,8.689,8.689,0,0,1,3.437-1.909,19.988,19.988,0,0,1,4.637-.655A33.1,33.1,0,0,1,76.6,6.23a3.605,3.605,0,0,1,2.292,1.528,7.377,7.377,0,0,1,1.363,4.2q-.056,2.02-.272,5.183-.656,8.183-.764,16.039t0,14.294q.106,6.44.436,14.076a10.117,10.117,0,0,1-.763,3.709,6.232,6.232,0,0,1-2.51,2.565,10.521,10.521,0,0,1-5.456,1.145,14.528,14.528,0,0,1-5.51-.818,5.511,5.511,0,0,1-2.619-1.964,6.957,6.957,0,0,1-.927-2.783Q61.537,59.7,61.429,54.076Z"/><path class="cls-2" d="M88.705,37.218a40.777,40.777,0,0,1,3.056-15.985,29.418,29.418,0,0,1,8.292-11.566,17.613,17.613,0,0,1,20.513-1.855,24.859,24.859,0,0,1,7.529,6.875,34.933,34.933,0,0,1,5.128,10.2,40.153,40.153,0,0,1,1.855,12.329,40.151,40.151,0,0,1-1.855,12.33,34.908,34.908,0,0,1-5.128,10.2,24.843,24.843,0,0,1-7.529,6.874,17.615,17.615,0,0,1-20.513-1.854,29.467,29.467,0,0,1-8.292-11.512A40.658,40.658,0,0,1,88.705,37.218Zm16.694-.436a71.477,71.477,0,0,0,.873,11.62,30.768,30.768,0,0,0,2.4,8.4q1.525,3.109,3.383,3.11t3.382-3.11a30.914,30.914,0,0,0,2.4-8.4,71.589,71.589,0,0,0,.873-11.62,71.348,71.348,0,0,0-.873-11.675,31.738,31.738,0,0,0-2.4-8.4q-1.53-3.165-3.382-3.165t-3.383,3.165a31.585,31.585,0,0,0-2.4,8.4A71.238,71.238,0,0,0,105.4,36.782Z"/><path class="cls-2" d="M147.626,17.415a38.11,38.11,0,0,1-5.347-.273,15.219,15.219,0,0,1-4.691-1.255,3.382,3.382,0,0,1-1.037-5.728,8.966,8.966,0,0,1,3-1.692,22.25,22.25,0,0,1,4.473-.927L174.577,4.7a36.7,36.7,0,0,1,5.073.109,10.672,10.672,0,0,1,3.656,1.037,2.92,2.92,0,0,1,1.746,2.564,3.172,3.172,0,0,1-1.036,2.891,9.968,9.968,0,0,1-3,1.855,25.56,25.56,0,0,1-4.365,1.255l-6.983,1.091q.435,2.729.981,7.693t1.092,10.966q.546,6,.982,11.783t.71,10.366q.27,4.582.272,6.547a4.864,4.864,0,0,1-1.364,3.764,7.53,7.53,0,0,1-3.164,1.746,20.708,20.708,0,0,1-4.529.6,13.269,13.269,0,0,1-4.636-.873,7.25,7.25,0,0,1-3.165-2.837q-1.365-2.072-1.364-6.219,0-3.708-.381-9.056t-.928-11.075q-.548-5.728-1.146-10.639t-1.364-11.129A32.451,32.451,0,0,1,147.626,17.415Z"/><path class="cls-1" d="M226.841,10.486a16.662,16.662,0,0,1,5.128.491,8.75,8.75,0,0,1,3.764,2.291,8.2,8.2,0,0,1,2.019,5.183q.216,2.728.873,7.038t1.418,9q.763,4.692,1.474,8.783t1.691,9.329L247.9,35.145a12.724,12.724,0,0,1,2.565-4.691,5.871,5.871,0,0,1,4.419-1.528,7.378,7.378,0,0,1,4.473,1.146,6.864,6.864,0,0,1,2.237,2.782,25.969,25.969,0,0,1,1.145,3.164q.329,1.092,1.037,3.655t1.418,5.4q.71,2.838,1.8,6.764l.983-9.056L272.559,10.7a10.583,10.583,0,0,1,3.546-4.364q2.127-1.418,6.383-1.091,6.436.437,7.91,2.618a5.769,5.769,0,0,1,.382,5.347,66.169,66.169,0,0,0-1.636,6.6q-1.092,5.074-2.509,12.166t-2.729,14.894q-1.31,7.8-2.291,14.785a11.165,11.165,0,0,1-1.909,5.51,8.694,8.694,0,0,1-3.11,2.673,12.219,12.219,0,0,1-4.037.982,16.425,16.425,0,0,1-4.856-.436,9.59,9.59,0,0,1-3.928-2.292,11.718,11.718,0,0,1-3-5.455q-2.073-7.419-5.128-17.458l-6.11,18.549a10.105,10.105,0,0,1-3.219,3.928A9.947,9.947,0,0,1,240.7,68.97q-5.565,0-7.692-1.8a11.892,11.892,0,0,1-3.328-5.838q-.328-1.416-1.31-5.073t-2.181-8.566q-1.2-4.909-2.51-10.092t-2.4-9.6q-1.092-4.421-2.509-9.984a6.382,6.382,0,0,1,0-3.328A5.177,5.177,0,0,1,221,12.123,13.541,13.541,0,0,1,226.841,10.486Z"/><path class="cls-1" d="M340.535,36.018A14.9,14.9,0,0,1,337.48,44.8a17.462,17.462,0,0,1-6.6,5.019,31.268,31.268,0,0,1-7.693,2.291,58.261,58.261,0,0,1-8.947.6,13.382,13.382,0,0,0,1.856,5.456,4.136,4.136,0,0,0,2.673,1.855,5.493,5.493,0,0,0,2.783-.273,11.273,11.273,0,0,0,2.945-1.8,16.954,16.954,0,0,1,4.965-2.891,19.324,19.324,0,0,1,6.492-.928q4.472,0,6.055,1.145a3.09,3.09,0,0,1,1.527,2.619,9.448,9.448,0,0,1-1.254,3.765,17.881,17.881,0,0,1-4.256,3.491,27.24,27.24,0,0,1-6.656,2.564,45.867,45.867,0,0,1-10.91,1.255,26.5,26.5,0,0,1-10.8-1.745,21.079,21.079,0,0,1-7.2-4.856,22.437,22.437,0,0,1-4.309-6.328,31.084,31.084,0,0,1-2.074-6.22,23.776,23.776,0,0,1-.6-4.528,42.445,42.445,0,0,1,.272-4.255,20.848,20.848,0,0,1,1.418-5.511,17.976,17.976,0,0,1,3.547-5.51,17.268,17.268,0,0,1,6.6-4.255,31.4,31.4,0,0,1,10.748-1.746q8.182-.108,12.765,1.419a16.189,16.189,0,0,1,6.656,3.709,9.732,9.732,0,0,1,2.565,4.147A13.568,13.568,0,0,1,340.535,36.018Zm-17.894,6.329q3.272-2.292,3.818-5.129a5.758,5.758,0,0,0-1.035-4.855,5.177,5.177,0,0,0-4.746-1.8,5.846,5.846,0,0,0-4.8,2.347,13.694,13.694,0,0,0-2.291,5.128,42.813,42.813,0,0,0-.873,7.147Q319.366,44.638,322.641,42.347Z"/><path class="cls-1" d="M352.536,2.957A8.214,8.214,0,0,1,355.592.83a13.192,13.192,0,0,1,5.674-.819,7.933,7.933,0,0,1,5.019,1.528,5.707,5.707,0,0,1,1.964,3.546,10.822,10.822,0,0,1-.219,4.31,34.667,34.667,0,0,0-.981,6.656q-.221,3.71-.11,9.056,8.728,0,14.13,2.182a22.216,22.216,0,0,1,8.348,5.456,19.656,19.656,0,0,1,4.092,6.546,33.339,33.339,0,0,1,1.582,7.639,47.018,47.018,0,0,1-1.529,7.746,24.528,24.528,0,0,1-3.164,6.547,17.97,17.97,0,0,1-6,5.51,19.234,19.234,0,0,1-9.82,2.237q-7.527,0-12.384-3.382a22.931,22.931,0,0,1-7.584-9,47.032,47.032,0,0,1-3.927-12.33,88.356,88.356,0,0,1-1.365-13.421,121.7,121.7,0,0,1,.274-12.329q.435-5.619,1.418-12.384A8.566,8.566,0,0,1,352.536,2.957Zm13.53,30.77q-.219,4.91-.054,8.511a37.692,37.692,0,0,0,1.037,7.2A14.885,14.885,0,0,0,369.94,55.5a6.468,6.468,0,0,0,5.51,2.346,4.016,4.016,0,0,0,3.71-2.019,12.527,12.527,0,0,0,1.582-4.637,24.164,24.164,0,0,0,.273-4.692q-.111-2.072-.109-2.4a15.458,15.458,0,0,0-.382-2.019,12.382,12.382,0,0,0-1.746-3.819,9.814,9.814,0,0,0-4.364-3.491Q371.411,33.4,366.066,33.727Z"/><path class="cls-3" d="M.392,89.984h2.7v19.01h9.287v2.293H.392Z"/><path class="cls-3" d="M14.354,103.421c0-5.108,3.454-8.3,7.111-8.3,4,0,6.268,2.9,6.268,7.4a10.306,10.306,0,0,1-.116,1.509H17c.174,3.366,2.234,5.514,5.224,5.514a6.791,6.791,0,0,0,3.947-1.248l.958,1.742a9.39,9.39,0,0,1-5.225,1.625C17.721,111.664,14.354,108.617,14.354,103.421Zm11.057-1.305c0-3.164-1.451-4.876-3.918-4.876-2.234,0-4.208,1.8-4.527,4.876Z"/><path class="cls-3" d="M30.173,107.194c0-3.424,2.989-5.136,9.693-5.891,0-2.032-.668-3.976-3.25-3.976a8.679,8.679,0,0,0-4.731,1.683L30.84,97.182a11.852,11.852,0,0,1,6.211-2.061c3.831,0,5.456,2.583,5.456,6.472v9.694H40.331L40.1,109.4h-.087a8.449,8.449,0,0,1-5.225,2.264A4.272,4.272,0,0,1,30.173,107.194Zm9.693.262v-4.412c-5.311.639-7.11,1.945-7.11,3.976,0,1.8,1.219,2.525,2.786,2.525C37.08,109.545,38.328,108.82,39.866,107.456Z"/><path class="cls-3" d="M47.529,95.527h2.177l.232,2.874h.087c1.1-2,2.7-3.28,4.47-3.28a3.356,3.356,0,0,1,1.684.349l-.494,2.321a3.735,3.735,0,0,0-1.539-.261c-1.3,0-2.93.929-3.975,3.628v10.129H47.529Z"/><path class="cls-3" d="M58.791,95.527h2.177l.232,2.264h.087c1.51-1.48,3.135-2.67,5.282-2.67,3.309,0,4.818,2.148,4.818,6.182v9.984H68.746v-9.636c0-2.96-.9-4.208-2.989-4.208-1.625,0-2.729.813-4.324,2.409v11.435H58.791Z"/><path class="cls-3" d="M76.091,90.507a1.771,1.771,0,1,1,1.77,1.77A1.661,1.661,0,0,1,76.091,90.507Zm.435,5.02h2.641v15.76H76.526Z"/><path class="cls-3" d="M84.508,95.527h2.177l.232,2.264H87c1.51-1.48,3.135-2.67,5.282-2.67,3.309,0,4.818,2.148,4.818,6.182v9.984H94.463v-9.636c0-2.96-.9-4.208-2.989-4.208-1.625,0-2.729.813-4.325,2.409v11.435H84.508Z"/><path class="cls-3" d="M101.053,114.305a4.425,4.425,0,0,1,2.321-3.57v-.116a2.851,2.851,0,0,1-1.451-2.583,3.847,3.847,0,0,1,1.77-2.931v-.116a5.533,5.533,0,0,1-2.06-4.238,5.613,5.613,0,0,1,5.921-5.63,6.514,6.514,0,0,1,2.206.406h5.484v2.032h-3.221a4.5,4.5,0,0,1,1.277,3.251,5.4,5.4,0,0,1-5.746,5.485,5.473,5.473,0,0,1-2.351-.552,2.346,2.346,0,0,0-1.015,1.887c0,1.015.637,1.712,2.756,1.712h3.077c3.657,0,5.514,1.161,5.514,3.744,0,2.931-3.1,5.456-7.981,5.456C103.693,118.542,101.053,117.033,101.053,114.305Zm11.9-.813c0-1.451-1.132-1.944-3.222-1.944H107a8.865,8.865,0,0,1-2.031-.261,3.284,3.284,0,0,0-1.6,2.67c0,1.683,1.713,2.786,4.557,2.786C110.949,116.743,112.952,115.146,112.952,113.492Zm-2.032-12.741a3.38,3.38,0,1,0-6.732,0,3.385,3.385,0,1,0,6.732,0Z"/><path class="cls-3" d="M142.76,111.664a30.034,30.034,0,0,1-3.918-2.815,8.671,8.671,0,0,1-6.5,2.786c-4.237,0-6.937-2.293-6.937-5.8,0-2.9,2.206-4.615,4.557-6.095a9.036,9.036,0,0,1-1.828-4.992,4.837,4.837,0,0,1,5.05-5.137c2.786,0,4.586,1.741,4.586,4.324,0,2.874-2.293,4.586-4.7,6.153a58.779,58.779,0,0,0,5.631,5.456,12.979,12.979,0,0,0,2.351-5.717h2.437a18.826,18.826,0,0,1-3.105,7.139,37.877,37.877,0,0,0,3.628,2.554Zm-10.216-2.148a6.579,6.579,0,0,0,4.615-2.176,53.414,53.414,0,0,1-6.008-6.008c-1.828,1.219-3.308,2.525-3.308,4.382C127.843,108.123,129.787,109.516,132.544,109.516Zm-.639-10.941c2.033-1.277,3.744-2.583,3.744-4.556a2.376,2.376,0,0,0-2.408-2.525,2.824,2.824,0,0,0-2.9,3.134A7.379,7.379,0,0,0,131.905,98.575Z"/><path class="cls-3" d="M155.621,89.984H162.3c4.324,0,7.43,1.568,7.43,6.008a5.771,5.771,0,0,1-4.818,5.979l5.456,9.316h-3.048l-5.166-9.026h-3.831v9.026h-2.7Zm6.269,10.1c3.338,0,5.166-1.335,5.166-4.092,0-2.815-1.828-3.8-5.166-3.8h-3.571v7.894Z"/><path class="cls-3" d="M172.34,103.421c0-5.108,3.454-8.3,7.111-8.3,4,0,6.269,2.9,6.269,7.4a10.447,10.447,0,0,1-.116,1.509H174.981c.174,3.366,2.235,5.514,5.224,5.514a6.791,6.791,0,0,0,3.947-1.248l.958,1.742a9.386,9.386,0,0,1-5.224,1.625C175.707,111.664,172.34,108.617,172.34,103.421Zm11.057-1.305c0-3.164-1.451-4.876-3.918-4.876-2.234,0-4.208,1.8-4.527,4.876Z"/><path class="cls-3" d="M187.84,109.487l1.306-1.741a7.146,7.146,0,0,0,4.672,1.857c2.089,0,3.106-1.1,3.106-2.467,0-1.625-1.858-2.322-3.6-2.989-2.205-.813-4.614-1.886-4.614-4.556,0-2.5,2.031-4.47,5.456-4.47a8.01,8.01,0,0,1,4.876,1.771L197.765,98.6a5.769,5.769,0,0,0-3.57-1.393c-2,0-2.931,1.045-2.931,2.264,0,1.509,1.626,2.06,3.395,2.728,2.293.87,4.819,1.8,4.819,4.788,0,2.554-2.033,4.673-5.748,4.673A9.5,9.5,0,0,1,187.84,109.487Z"/><path class="cls-3" d="M202,103.421c0-5.253,3.453-8.3,7.313-8.3s7.314,3.047,7.314,8.3c0,5.224-3.453,8.243-7.314,8.243S202,108.645,202,103.421Zm11.9,0c0-3.627-1.857-6.094-4.586-6.094s-4.556,2.467-4.556,6.094,1.828,6.037,4.556,6.037S213.9,107.049,213.9,103.421Z"/><path class="cls-3" d="M220.58,105.511V95.527h2.641v9.665c0,2.931.871,4.179,2.961,4.179,1.625,0,2.756-.784,4.265-2.67V95.527h2.642v15.76h-2.206l-.2-2.467h-.087c-1.481,1.712-3.048,2.844-5.225,2.844C222.061,111.664,220.58,109.516,220.58,105.511Z"/><path class="cls-3" d="M238.4,95.527h2.177l.233,2.874h.086c1.1-2,2.7-3.28,4.469-3.28a3.352,3.352,0,0,1,1.684.349l-.493,2.321a3.734,3.734,0,0,0-1.538-.261c-1.307,0-2.932.929-3.977,3.628v10.129H238.4Z"/><path class="cls-3" d="M248.154,103.421c0-5.253,3.57-8.3,7.6-8.3a6.746,6.746,0,0,1,4.615,1.857l-1.364,1.742a4.659,4.659,0,0,0-3.135-1.393c-2.873,0-4.963,2.467-4.963,6.094s1.974,6.037,4.876,6.037a5.554,5.554,0,0,0,3.715-1.567l1.161,1.77a7.644,7.644,0,0,1-5.108,2C251.376,111.664,248.154,108.645,248.154,103.421Z"/><path class="cls-3" d="M262.231,103.421c0-5.108,3.455-8.3,7.112-8.3,4,0,6.268,2.9,6.268,7.4a10.306,10.306,0,0,1-.116,1.509H264.873c.174,3.366,2.234,5.514,5.224,5.514a6.791,6.791,0,0,0,3.947-1.248l.958,1.742a9.39,9.39,0,0,1-5.225,1.625C265.6,111.664,262.231,108.617,262.231,103.421Zm11.058-1.305c0-3.164-1.451-4.876-3.918-4.876-2.234,0-4.208,1.8-4.527,4.876Z"/><path class="cls-3" d="M290.59,89.984h2.757l2.235,11.609c.406,2.293.841,4.586,1.247,6.879h.116c.494-2.293,1.017-4.586,1.538-6.879l2.932-11.609h2.467l2.96,11.609c.522,2.264,1.016,4.557,1.51,6.879h.144q.609-3.483,1.22-6.879l2.234-11.609h2.583l-4.411,21.3H306.9l-3.221-12.828c-.377-1.684-.7-3.222-1.045-4.847h-.116c-.348,1.625-.726,3.163-1.074,4.847l-3.164,12.828h-3.192Z"/><path class="cls-3" d="M316.8,103.421c0-5.108,3.453-8.3,7.11-8.3,4,0,6.269,2.9,6.269,7.4a10.152,10.152,0,0,1-.117,1.509H319.44c.174,3.366,2.235,5.514,5.224,5.514a6.789,6.789,0,0,0,3.947-1.248l.958,1.742a9.383,9.383,0,0,1-5.223,1.625C320.166,111.664,316.8,108.617,316.8,103.421Zm11.057-1.305c0-3.164-1.451-4.876-3.919-4.876-2.234,0-4.208,1.8-4.527,4.876Z"/><path class="cls-3" d="M336.536,109.661h-.116l-.232,1.626h-2.119v-23.1h2.642v6.327l-.088,2.844a7.941,7.941,0,0,1,4.935-2.235c4.091,0,6.3,3.192,6.3,8.01,0,5.428-3.221,8.533-6.849,8.533A7,7,0,0,1,336.536,109.661Zm8.562-6.472c0-3.482-1.16-5.833-4.151-5.833-1.335,0-2.727.754-4.236,2.177V107.8a6.045,6.045,0,0,0,3.859,1.654C343.183,109.458,345.1,107.107,345.1,103.189Z"/><path class="cls-3" d="M350.237,109.487l1.307-1.741a7.144,7.144,0,0,0,4.672,1.857c2.09,0,3.105-1.1,3.105-2.467,0-1.625-1.857-2.322-3.6-2.989-2.205-.813-4.615-1.886-4.615-4.556,0-2.5,2.032-4.47,5.456-4.47a8.006,8.006,0,0,1,4.876,1.771L360.163,98.6a5.766,5.766,0,0,0-3.569-1.393c-2,0-2.932,1.045-2.932,2.264,0,1.509,1.625,2.06,3.4,2.728,2.293.87,4.817,1.8,4.817,4.788,0,2.554-2.031,4.673-5.746,4.673A9.51,9.51,0,0,1,350.237,109.487Z"/><path class="cls-3" d="M365.155,90.507a1.771,1.771,0,1,1,1.771,1.77A1.662,1.662,0,0,1,365.155,90.507Zm.436,5.02h2.641v15.76h-2.641Z"/><path class="cls-3" d="M374.038,106.411V97.675h-2.351v-2l2.467-.146.319-4.44h2.206v4.44h4.266v2.148h-4.266v8.794c0,1.945.609,3.047,2.437,3.047a5.585,5.585,0,0,0,1.8-.406l.522,1.973a9.889,9.889,0,0,1-2.9.581C375.17,111.664,374.038,109.545,374.038,106.411Z"/><path class="cls-3" d="M382.891,103.421c0-5.108,3.453-8.3,7.11-8.3,4,0,6.269,2.9,6.269,7.4a10.152,10.152,0,0,1-.117,1.509H385.531c.174,3.366,2.235,5.514,5.224,5.514A6.789,6.789,0,0,0,394.7,108.3l.958,1.742a9.383,9.383,0,0,1-5.223,1.625C386.257,111.664,382.891,108.617,382.891,103.421Zm11.056-1.305c0-3.164-1.45-4.876-3.918-4.876-2.234,0-4.208,1.8-4.527,4.876Z"/></svg>